<?xml version="1.0" encoding="UTF-8"?>
<svg version="1.1" viewBox="0 0 890 1024" width="890" height="1024" xmlns="http://www.w3.org/2000/svg">
<path transform="translate(203,39)" d="m0 0h24l23 3 27 6 27 8 21 8 23 10 16 8 14 8 12 11 7 10 9 16 16 27 11 19 1 1h31l2-4 13-8 5 1 2 12 4 2 21 5 20 7 16 8 5-1 15-13 10-9 11-9 12-11 11-9 12-11 8-4 4-1h9l28 10 24 7 22 5 28 4 55 1 19 2 9 4 2 2-1 6-6 9-9 6-11 5-21 6-31 6-26 4h-27l-14-2-17-5-16-8-12-8-11-9h-6l-15 8-15 11-17 12-6 4v4l11 9 9 9 9 13 6 12 4 15 9 6 9 7 7 8 6 12 2 7v15l-3 16-6 14-8 11-10 10 1 6 9 17 15 35 14 36 8 25 7 30 4 21 3 32v45l10-4 12-13 7-8 4-4 2 1v23l5 2 16 2 2 1-1 4-11 11-5 4h-2l1 13 2 12v9l-4-1-13-11-6-3-9 6-18 13-3 5-8 21-8 18-8 15-8 12-7 9-9 10-15 12-4 15-3 18-1 18 1 10h11l6 4 4 5 1 5-6 7-7 4 1 16-2 7-4 3h-10l-6-3-3-5-1-9v-5l-11-1-6-4-2-3v-8l3-5 10-5 3-1v-8l-2-17v-23l-22 3-21 2h-27l-26-3-26-6-23-7-9-4h-3l-4 12-1 5v23l4 13 3 3 16 2 5 3 2 4v6l-6 7-6 3h-7l1 4v8l-3 6-6 5-7 1-8-4-3-4v-12l1-6-11-3-6-5-1-8 3-5 5-3h10l-7-18-3-16 1-13 7-18 2-5-10-14-9-17-5-17-2-13v-34l1-21 3-25 5-28 5-20 2-9-6-12-5-6-12-2-17-4-16-6-11-6-13-9-12-10-6 1-16 6-9 2h-16l-9-3-26-20-4-1-21 7-14 3-9 1h-30l-15-3-9-4-8-6-6-7-5-10-3-11v-15l-18 3 3-3 9-4 8-1 4-10 6-8v-2l-8-5v-1l9 1 2 1h6l10-6 13-5 14-3v-10l3-7 4-5 11-3 8-2 8-10 11-12 19-19 14-10 16-9 21-9 22-8 8-2 2-26 5-22 5-15 8-16 6-9 3-6-18-2-2-2 19-6 13-3 16-8 11-8 12-11 3-4h2l2-4 5-6 4 2 6 8-1 5-5 5v4l9-1 12-3h3l-2-6-8-14-14-21-9-10-5-5-5-3-29-2-24-4-21-5-27-9-20-9-23-12-16-12-8-8-5-10v-5z" fill="#E29CA9"/>
<path transform="translate(203,39)" d="m0 0h24l23 3 27 6 27 8 21 8 23 10 16 8 14 8 12 11 7 10 9 16 16 27 11 19 1 1h31l2-4 13-8 5 1 2 12 4 2 21 5 20 7 16 8 5-1 15-13 10-9 11-9 12-11 11-9 12-11 8-4 4-1h9l28 10 24 7 22 5 28 4 55 1 19 2 9 4 2 2-1 6-6 9-9 6-11 5-21 6-31 6-26 4h-27l-14-2-17-5-16-8-12-8-11-9h-6l-15 8-15 11-17 12-6 4v4l11 9 9 9 9 13 6 12 4 15 9 6 9 7 7 8 6 12 2 7v15l-3 16-6 14-8 11-10 10 1 6 9 17 15 35 14 36 8 25 7 30 4 21 3 32v45l10-4 12-13 7-8 4-4 2 1v23l5 2 16 2 2 1-1 4-11 11-5 4h-2l1 13 2 12v9l-4-1-13-11-6-3-9 6-18 13-3 5-8 21-8 18-8 15-8 12-7 9-9 10-15 12-4 15-3 18-1 18 1 10h11l6 4 4 5 1 5-6 7-7 4 1 16-2 7-4 3h-10l-6-3-3-5-1-9v-5l-11-1-6-4-2-3v-8l3-5 10-5 3-1v-8l-2-17v-23l-22 3-21 2h-27l-26-3-26-6-23-7-9-4h-3l-4 12-1 5v23l4 13 3 3 16 2 5 3 2 4v6l-6 7-6 3h-7l1 4v8l-3 6-6 5-7 1-8-4-3-4v-12l1-6-11-3-6-5-1-8 3-5 5-3h10l-7-18-3-16 1-13 7-18 2-5-10-14-9-17-5-17-2-13v-34l1-21 3-25 5-28 5-20 2-9-6-12-5-6-12-2-17-4-16-6-11-6-13-9-12-10-6 1-16 6-9 2h-16l-9-3-26-20-4-1-21 7-14 3-9 1h-30l-15-3-9-4-8-6-6-7-5-10-3-11v-15l-18 3 3-3 9-4 8-1 4-10 6-8v-2l-8-5v-1l9 1 2 1h6l10-6 13-5 14-3v-10l3-7 4-5 11-3 8-2 8-10 11-12 19-19 14-10 16-9 21-9 22-8 8-2 2-26 5-22 5-15 8-16 6-9 3-6-18-2-2-2 19-6 13-3 16-8 11-8 12-11 3-4h2l2-4 5-6 4 2 6 8-1 5-5 5v4l9-1 12-3h3l-2-6-8-14-14-21-9-10-5-5-5-3-29-2-24-4-21-5-27-9-20-9-23-12-16-12-8-8-5-10v-5zm243 141-31 4-19 4-1 2 6 18 2 10 1 10v15l-3 24-5 19-6 16-8 15-9 13-9 11-12 9-12 6-10 2-15 1-11-2-8-5-8-11-3-6 6 8 10 7 9 2-6-8-5-10-2-7-1-12-5-1-24 9-23 10-16 10-16 13-13 12-7 8-6 7v2l27 1 31 3 28 5 28 7 26 9 25 12 14 9 8 6 1 2v7l-6 12-8 11-9 10-15 11-20 12-13 7 2 4 7 7 15 10 16 7 15 4 20 3h23l16-4 12-6 10-9 8-9 9-17 1-4-12-2-3-2 4-1h11l1-1-1-16-4-17 14-3 16-7 15-9 16-12 11-10 8-7 8-8 11-14 10-17 7-17 4-16 2-15v-8l-2-1-21 6 8-6 11-5 8-2h11l8 4 4 6h2l-1 4v-2l-9-4-4-1h-10l-3 27-4 17-8 20-9 15-11 14-16 16-11 9-13 10-13 8-14 7-18 6 3 18 1 11 7 3 24 7-19-4-5-1h-8l-6 18-6 11-9 10-10 6-16 6-15 4-13 1v3l8 15-2 10-6 26-4 25-4 36v36l3 18 5 17 5 12 6 9 8 7 18 11 16 7 15 5 19 4 16 2 21 1h24l23-2 17-4 4-3 6-14 6-8-4 11-5 16-2 12v21l3 21 2 7h-14l-5 3-1 6 3 4 17-1v11l2 11 3 5 5-1 4-5v-14l-2-6 9-2 3-3v-8l-7-3-11 1-2-15v-31l3-15 5-12 8-15v4 4l4-2 10-11 12-16 9-13 7-15 11-30 5-17 4-21 2-17 1-18v-14l-2-4-7 4h-12l-4-2-5-10-1-5v-18l4-12 6-8 7-6 5-3-1-8-3-13-2-1-9 1-4-4-1-3v-9l6-18-1-8-9-25-12-27-19-38 1-5 12-12 10-14 5-11 2-7v-9l-4-16-5-10-10-11-14-8-11-2-21-2v-1l6-1h23l-1-5-8-18-9-15-11-12-8-5-5 1-7 1-6-4-2-10-16-8-15-6-14-4-10-1 4 10 8 12 8 9 13 9 12 5-10 1 2 18v36l-4 25-5 18-9 21-10 16-9 11-4 5-10 7-9 4h-18l5 5 13 6 9 2 1 1h-22l-10-6-9-11-13-25-5-19-2-12-1-12v-19l2-18 5-21 7-19 8-16 10-14 13-13 13-9-1-5-3-5-3-1z" fill="#0A0604"/>
<path transform="translate(474,196)" d="m0 0 4 2 12 13 12 10 8 5 8 2 3 11 1 10v25l-3 21-7 24-9 22-8 16-11 13-10 8-10 5h-11l-11-4-7-7-7-15-6-20-2-13v-30l4-23 5-19 6-14 7-10 8-10 15-15z" fill="#FDFCFC"/>
<path transform="translate(382,184)" d="m0 0 4 1 5 8 4 15 3 17v29l-4 19-8 21-13 25-8 12-9 9-14 7-8 2h-8l-9-5-7-7-4-8-2-7-1-8v-30l2-12 8-24 4-10 5-13 8-14 3-4 14-3 17-8 12-8z" fill="#FDFCFC"/>
<path transform="translate(181,391)" d="m0 0h30l36 4 28 5 19 5 35 13 27 12 10 7 2 2v3l-15 5-22 4-22 2h-34l-18-2-20-4-20-7-17-9-4-4 10 1 19 3 14 1h15l29-3 11-1v-2l-13-1-47-8-36-8-20-6-12-5-5-3 4-2z" fill="#AC592D"/>
<path transform="translate(148,420)" d="m0 0h6l13 23 7 11 10 13 10 11 7 8 7 7-2 2-25 6-20 3h-26l-12-3-10-7-8-10-6-12-1-3v-10l1-2 5 1 5 2h3l-3-3-8-4 1-6 6-8 3-3 4 1 7 5 4 1-4-6-6-4 1-3 12-6 11-3z" fill="#E29BA8"/>
<path transform="translate(215,44)" d="m0 0 16 1 23 4 24 6 33 11 21 8 25 11 10 7v1l-14-1-34-6-28-7-26-9-33-16-17-9z" fill="#AC592D"/>
<path transform="translate(641,135)" d="m0 0 23 10 25 8 19 4 51 4 55 1-2 2-36 5-22 2h-37l-20-3-16-5-17-8-16-10-7-8z" fill="#AC592D"/>
<path transform="translate(405,773)" d="m0 0 7 4-1 4-5 13-1 6v8l3 15 6 19 1 2h14l6 3 2 4-1 5-2 2h-10l-6-1 1 14-2 10-4 2-7-1-2-3v-11l3-12h-10l-8-4-2-4 3-5 7-1 10 3-10-30-1-4v-16l4-13 4-8z" fill="#DE969E"/>
<path transform="translate(705,607)" d="m0 0h2l-1 18 21 2-2 4-12 9-3 2 1 9 3 15-5-2-12-9-5 2-11 8-2-1-3-15-2-6 1-11 17-9 9-11z" fill="#DF98A2"/>
<path transform="translate(511,598)" d="m0 0h1l-1 14-6 49-1 4-7-1-5 3v5l5 3 4 2-4 13v6l3 3h4l4-11 2-8 5 2 3 1h7l2-1v-5l-6-4-9-4 4-32 5-29 2-1-1 25-3 28v6l10 7 4 5-1 6-5 5h-8l-5-2-3 9-6 8-6 2-6-4-2-5 1-10 3-7-9-6-1-7 4-6 3-1h8l4-29 6-29z"/>
<path transform="translate(459,589)" d="m0 0h1l1 18v18l-2 30-1 4-4-1-9-1-1 6 6 3 4 1-1 5-3 7v11l5 3 3-3 3-8 2-9 6 2h5l2-3-1-6-12-6 2-26 4-40 2-2 1 10v16l-3 32v7l9 6 4 5v6l-4 4-4 2h-6l-2-1-3 11-4 6-3 3-7-1-4-4-1-3v-9l6-12-7-1-4-3-1-9 4-4h9l4 1v-13l3-47z"/>
<path transform="translate(477,286)" d="m0 0 7 1 4 5 2 9v9l-2 8-3 6-3 2-7-1-4-5-2-6v-15l4-10z" fill="#090502"/>
<path transform="translate(357,272)" d="m0 0h7l4 5 2 5v19l-4 8-4 3-5-1-5-5-3-13 2-13 4-6z" fill="#090402"/>
<path transform="translate(361,276)" d="m0 0h5l1 1v9l-2 3-5-2-1-1v-7z" fill="#F7ECEC"/>
<path transform="translate(482,290)" d="m0 0 5 3v7l-3 4-4-2-1-1v-8z" fill="#F7ECEB"/>
<path transform="translate(664,551)" d="m0 0h2l1 4v12l-5-1-1-1 1-11z" fill="#F7EDEC"/>
<path transform="translate(370,499)" d="m0 0 4 1 1 7-3 3-4-1-1-1v-6z"/>
<path transform="translate(404,468)" d="m0 0 5 1 1 1-1 7-4 2-3-3 1-7z"/>
<path transform="translate(140,459)" d="m0 0 4 1 1 7-3 3-4-1-1-1v-6z"/>
<path transform="translate(411,501)" d="m0 0 5 1 1 4-3 5-5-1v-7z"/>
<path transform="translate(82,452)" d="m0 0 9 2v1l-18 3 3-3z" fill="#A15A3E"/>
</svg>
